<svg xmlns:dc="http://purl.org/dc/elements/1.1/" xmlns:cc="http://creativecommons.org/ns#" xmlns:rdf="http://www.w3.org/1999/02/22-rdf-syntax-ns#" xmlns:svg="http://www.w3.org/2000/svg" xmlns="http://www.w3.org/2000/svg" xmlns:sodipodi="http://sodipodi.sourceforge.net/DTD/sodipodi-0.dtd" xmlns:inkscape="http://www.inkscape.org/namespaces/inkscape" id="logo" width="48" height="48" version="1.1" inkscape:version="0.48.3.1 r9886"><defs><inkscape:perspective inkscape:vp_x="0 : 32 : 1" inkscape:vp_y="0 : 1000 : 0" inkscape:vp_z="64 : 32 : 1" inkscape:persp3d-origin="32 : 21.333333 : 1"/><inkscape:perspective inkscape:persp3d-origin="0.5 : 0.33333333 : 1" inkscape:vp_z="1 : 0.5 : 1" inkscape:vp_y="0 : 1000 : 0" inkscape:vp_x="0 : 0.5 : 1"/></defs><metadata><rdf:RDF><cc:Work rdf:about=""><dc:format>image/svg+xml</dc:format><dc:type rdf:resource="http://purl.org/dc/dcmitype/StillImage"/><dc:title/></cc:Work></rdf:RDF></metadata><g inkscape:label="Layer 1" inkscape:groupmode="layer" transform="translate(0,-16)"><g transform="matrix(0.76233377,0,0,0.76233377,-0.43510721,9.1051863)"><g transform="matrix(0.7092019,0,0,0.70547991,-235.84295,-11.674709)"><g><path inkscape:connector-curvature="0" d="m 380.9 97.2 c -0.5 2 -0.8 2.9 -1.5 4.9 1.3 0.4 2.9 0.2 4 -0.4 1.5 -0.8 1.4 -1.7 0.8 -2.7 -0.7 -1.1 -2.1 -1.9 -3.4 -1.9 z" class="nibble"/><path inkscape:connector-curvature="0" d="m 370.8 61.9 c -0.2 2.8 1.8 4.7 3.9 5.9 0.5 0.3 1.5 1 2.3 1.1 0.8 0 1.4 -0.5 2.3 -0.5 1 0 1.8 0.7 3.5 0.6 0.8 0 2.3 -0.3 3.3 -0.6 0.9 -0.2 1.7 -1 0.5 -1.4 -2 -0.6 -4.2 0 -6.1 -1.1 -1.3 -0.8 -1.8 -3.2 -3.5 -3.6 -0.9 -0.2 -1.9 0.3 -2.9 0.2 -1.2 -0.1 -2 -0.6 -3.3 -0.6 z" class="nibble"/><path inkscape:connector-curvature="0" d="m 381 61.4 c -0.2 1.4 0.1 2.3 0.9 2.9 1.5 0.9 2.8 0.1 4 -0.4 0.5 -1.1 -1.1 -3.7 -3 -3.4 -0.8 0.1 -1.2 0.7 -1.9 0.9 z" class="nibble"/><path inkscape:connector-curvature="0" d="m 365.5 58.4 c -1.9 1.1 -5.1 7 -5.7 7.8 -5.1 6.3 -5.9 16.7 -6 20.5 -0.1 6.1 2.2 11.5 5.1 13.9 1.7 1.4 2.4 1.7 3.8 3.1 0.6 0.9 0.6 1.7 0.5 2.7 1.2 0.5 5.6 0.5 9.1 -1.8 2.4 -1.6 4.3 -3.8 5.1 -6.6 0.4 -1.6 0.5 -2.8 0.3 -4.1 -0.6 -2.4 -1.8 -3.9 -3.8 -5.3 -0.3 -0.2 -1.5 -0.9 -1.7 -1.1 -0.8 -0.7 -0.7 -1.9 -0.9 -3 1 -0.1 7.9 -0.6 11.2 -1.6 1.5 -0.5 1.9 -2.1 2.4 -3.5 0.3 -1 0.3 -2.1 0.9 -3 0.5 -0.8 2 -1.1 2.9 -1.8 1 -0.9 1.4 -2.4 0.9 -3.9 -0.9 0 -1.7 0.1 -2.5 0.2 -0.7 0.1 -1.6 0.1 -2.2 0.4 -1.6 0.8 -1.5 4.9 -4.5 3.8 -1.2 -1 -1.8 -1.7 -2.7 -2.8 -3.2 -0.8 -5.5 -1.9 -7.4 -3.6 -2.8 -2.5 -3.7 -6.1 -4.4 -10.2 0 -0.1 -0.2 -0.1 -0.2 -0.2 z" class="nibble"/><path inkscape:connector-curvature="0" d="m 377.8 58.5 c 0.2 0.1 0.5 0.4 0.5 0.4 0 0 6 -1.2 8 0.5 1.1 1 1.6 2.1 2.1 3.3 0.4 1 0.9 2.2 2.4 1.5 0.8 -0.4 0.1 -0.5 -0.4 -1.3 -0.2 -0.4 -0.6 -1.4 -0.7 -1.9 -0.4 -1.7 -0.9 -2.3 -2.2 -3.6 -1.2 -1.2 -2.4 -1.9 -3.8 -2.4 -1.7 -0.6 -3.2 -1.1 -4.9 -0.8 -0.3 1.1 -0.2 3 -0.9 4.3 z" class="nibble"/><path inkscape:connector-curvature="0" d="m 371.5 48.4 c -1 0.8 -2.9 2.2 -3.2 4.7 -0.2 2.1 1.5 4.8 3.2 5.5 1.3 0.5 3.3 -2.4 3.8 -3.2 0.4 -1.1 0.5 -1.3 0.2 -2.3 -0.4 -1.6 -2 -2.9 -2.4 -4.4 -0.5 -1.5 -1.1 -0.7 -1.6 -0.3 z" class="nibble"/><path inkscape:connector-curvature="0" d="m 360.1 104 c -0.5 -0.6 -1.3 -0.2 -3.5 -2.2 -2.2 -2 -3.8 -5.8 -4.4 -8.4 -0.5 -1.7 -0.8 -4.5 -0.8 -6.9 0.1 -4.4 0.1 -9.6 2.7 -15.2 1.8 -3.8 9.9 -13.2 8.5 -20.4 -1.4 -7.2 -4.5 -8.3 -8.6 -9.2 -5.6 -1.2 -9.1 0.3 -11.9 3.5 -2.3 2.7 -2.8 4 -3.8 6.3 -4.1 12.9 -2.3 16.3 7.8 4.6 1.4 -2.2 2.7 -3.4 4.7 -2.6 0.9 0.4 0.3 3.5 -1 5 -2.4 2.6 -13.5 15 -15 20.1 -1.5 5.1 -2.1 8.6 -0.5 12.8 1.3 3.5 3.7 5.8 8.4 8.7 10.6 6.4 13.9 5.5 16.3 5.9 2 0.3 3.1 -0.8 1.2 -1.9 z" class="nibble"/></g><path inkscape:connector-curvature="0" d="m 391.5 65.7 c -0.6 1.1 -0.9 1.7 -1.6 2.9 0.5 0.4 1.1 0.4 1.7 0.2 0.8 -0.3 1 -0.9 0.9 -1.6 -0.1 -0.7 -0.4 -1.4 -1 -1.5 z" class="nibble"/></g><g transform="matrix(0.69383797,0,0,0.6915772,-230.72138,-10.191388)"><path inkscape:connector-curvature="0" d="m 411.9 88.8 c 0 -3.4 -1.5 -5.3 -4.6 -5.3 -3.1 0 -4.6 2.4 -4.6 6.1 v 11 c 0 4.2 -2.6 6.1 -6.2 6.1 -3.6 0 -6.2 -1.9 -6.2 -6.1 V 79.7 c 0 -3.8 1.9 -5.9 5.9 -5.9 3.7 0 5.1 2.1 5.5 5.8 h 0.1 c 2 -3.7 5.5 -5.8 10.2 -5.8 8.6 0 12.1 5.3 12.1 12.1 v 14.7 c 0 4.2 -2.6 6.1 -6.2 6.1 -3.6 0 -6.2 -1.9 -6.2 -6.1 V 88.8 z" class="nibble"/></g></g></g></svg>